<mxfile host="Electron" agent="Mozilla/5.0 (Windows NT 10.0; Win64; x64) AppleWebKit/537.36 (KHTML, like Gecko) draw.io/26.0.4 Chrome/128.0.6613.186 Electron/32.2.5 Safari/537.36" version="26.0.4">
  <diagram name="Page-1" id="nJQzhM3FjFGSAYBn0GMU">
    <mxGraphModel dx="2074" dy="1196" grid="1" gridSize="10" guides="1" tooltips="1" connect="1" arrows="1" fold="1" page="1" pageScale="1" pageWidth="850" pageHeight="1100" math="0" shadow="0">
      <root>
        <mxCell id="0" />
        <mxCell id="1" parent="0" />
        <mxCell id="jb3Zaknvb_DmuaJsOMX0-2" style="edgeStyle=orthogonalEdgeStyle;rounded=0;orthogonalLoop=1;jettySize=auto;html=1;entryX=0.5;entryY=0;entryDx=0;entryDy=0;" edge="1" parent="1" source="jb3Zaknvb_DmuaJsOMX0-1" target="jb3Zaknvb_DmuaJsOMX0-3">
          <mxGeometry relative="1" as="geometry">
            <mxPoint x="110" y="340" as="targetPoint" />
            <Array as="points">
              <mxPoint x="410" y="250" />
              <mxPoint x="111" y="250" />
            </Array>
          </mxGeometry>
        </mxCell>
        <mxCell id="jb3Zaknvb_DmuaJsOMX0-12" style="edgeStyle=orthogonalEdgeStyle;rounded=0;orthogonalLoop=1;jettySize=auto;html=1;" edge="1" parent="1" source="jb3Zaknvb_DmuaJsOMX0-1" target="jb3Zaknvb_DmuaJsOMX0-11">
          <mxGeometry relative="1" as="geometry">
            <Array as="points">
              <mxPoint x="410" y="250" />
              <mxPoint x="310" y="250" />
            </Array>
          </mxGeometry>
        </mxCell>
        <mxCell id="jb3Zaknvb_DmuaJsOMX0-23" style="edgeStyle=orthogonalEdgeStyle;rounded=0;orthogonalLoop=1;jettySize=auto;html=1;entryX=0.5;entryY=0;entryDx=0;entryDy=0;" edge="1" parent="1" source="jb3Zaknvb_DmuaJsOMX0-1" target="jb3Zaknvb_DmuaJsOMX0-22">
          <mxGeometry relative="1" as="geometry">
            <Array as="points">
              <mxPoint x="410" y="250" />
              <mxPoint x="520" y="250" />
            </Array>
          </mxGeometry>
        </mxCell>
        <mxCell id="jb3Zaknvb_DmuaJsOMX0-34" style="edgeStyle=orthogonalEdgeStyle;rounded=0;orthogonalLoop=1;jettySize=auto;html=1;" edge="1" parent="1" source="jb3Zaknvb_DmuaJsOMX0-1" target="jb3Zaknvb_DmuaJsOMX0-33">
          <mxGeometry relative="1" as="geometry">
            <Array as="points">
              <mxPoint x="410" y="250" />
              <mxPoint x="730" y="250" />
            </Array>
          </mxGeometry>
        </mxCell>
        <mxCell id="jb3Zaknvb_DmuaJsOMX0-43" style="edgeStyle=orthogonalEdgeStyle;rounded=0;orthogonalLoop=1;jettySize=auto;html=1;entryX=0.5;entryY=0;entryDx=0;entryDy=0;" edge="1" parent="1" source="jb3Zaknvb_DmuaJsOMX0-1" target="jb3Zaknvb_DmuaJsOMX0-42">
          <mxGeometry relative="1" as="geometry">
            <Array as="points">
              <mxPoint x="410" y="250" />
              <mxPoint x="940" y="250" />
            </Array>
          </mxGeometry>
        </mxCell>
        <mxCell id="jb3Zaknvb_DmuaJsOMX0-53" style="edgeStyle=orthogonalEdgeStyle;rounded=0;orthogonalLoop=1;jettySize=auto;html=1;entryX=0.5;entryY=0;entryDx=0;entryDy=0;" edge="1" parent="1" source="jb3Zaknvb_DmuaJsOMX0-1" target="jb3Zaknvb_DmuaJsOMX0-52">
          <mxGeometry relative="1" as="geometry">
            <Array as="points">
              <mxPoint x="410" y="250" />
              <mxPoint x="1190" y="250" />
            </Array>
          </mxGeometry>
        </mxCell>
        <mxCell id="jb3Zaknvb_DmuaJsOMX0-1" value="AI-Powered Medical Imaging System" style="rounded=1;whiteSpace=wrap;html=1;" vertex="1" parent="1">
          <mxGeometry x="350" y="130" width="120" height="60" as="geometry" />
        </mxCell>
        <mxCell id="jb3Zaknvb_DmuaJsOMX0-5" value="" style="edgeStyle=orthogonalEdgeStyle;rounded=0;orthogonalLoop=1;jettySize=auto;html=1;" edge="1" parent="1" source="jb3Zaknvb_DmuaJsOMX0-3" target="jb3Zaknvb_DmuaJsOMX0-4">
          <mxGeometry relative="1" as="geometry">
            <Array as="points">
              <mxPoint x="10" y="330" />
              <mxPoint x="10" y="470" />
            </Array>
          </mxGeometry>
        </mxCell>
        <mxCell id="jb3Zaknvb_DmuaJsOMX0-7" style="edgeStyle=orthogonalEdgeStyle;rounded=0;orthogonalLoop=1;jettySize=auto;html=1;entryX=0.025;entryY=0.65;entryDx=0;entryDy=0;entryPerimeter=0;" edge="1" parent="1" source="jb3Zaknvb_DmuaJsOMX0-3" target="jb3Zaknvb_DmuaJsOMX0-8">
          <mxGeometry relative="1" as="geometry">
            <mxPoint x="10" y="570" as="targetPoint" />
            <Array as="points">
              <mxPoint x="10" y="330" />
              <mxPoint x="10" y="560" />
            </Array>
          </mxGeometry>
        </mxCell>
        <mxCell id="jb3Zaknvb_DmuaJsOMX0-10" style="edgeStyle=orthogonalEdgeStyle;rounded=0;orthogonalLoop=1;jettySize=auto;html=1;entryX=0;entryY=0.5;entryDx=0;entryDy=0;" edge="1" parent="1" source="jb3Zaknvb_DmuaJsOMX0-3" target="jb3Zaknvb_DmuaJsOMX0-9">
          <mxGeometry relative="1" as="geometry">
            <Array as="points">
              <mxPoint x="10" y="330" />
              <mxPoint x="10" y="630" />
            </Array>
          </mxGeometry>
        </mxCell>
        <mxCell id="jb3Zaknvb_DmuaJsOMX0-3" value="Project Management" style="rounded=1;whiteSpace=wrap;html=1;" vertex="1" parent="1">
          <mxGeometry x="50" y="300" width="120" height="60" as="geometry" />
        </mxCell>
        <mxCell id="jb3Zaknvb_DmuaJsOMX0-4" value="Planning and Scheduling" style="whiteSpace=wrap;html=1;rounded=1;" vertex="1" parent="1">
          <mxGeometry x="50" y="440" width="120" height="60" as="geometry" />
        </mxCell>
        <mxCell id="jb3Zaknvb_DmuaJsOMX0-8" value="Risk &amp;amp; Change Management" style="whiteSpace=wrap;html=1;rounded=1;" vertex="1" parent="1">
          <mxGeometry x="50" y="520" width="120" height="60" as="geometry" />
        </mxCell>
        <mxCell id="jb3Zaknvb_DmuaJsOMX0-9" value="Budget &amp;amp; Cost Control" style="whiteSpace=wrap;html=1;rounded=1;" vertex="1" parent="1">
          <mxGeometry x="50" y="600" width="120" height="60" as="geometry" />
        </mxCell>
        <mxCell id="jb3Zaknvb_DmuaJsOMX0-14" value="" style="edgeStyle=orthogonalEdgeStyle;rounded=0;orthogonalLoop=1;jettySize=auto;html=1;" edge="1" parent="1" source="jb3Zaknvb_DmuaJsOMX0-11" target="jb3Zaknvb_DmuaJsOMX0-13">
          <mxGeometry relative="1" as="geometry">
            <Array as="points">
              <mxPoint x="210" y="330" />
              <mxPoint x="210" y="470" />
            </Array>
          </mxGeometry>
        </mxCell>
        <mxCell id="jb3Zaknvb_DmuaJsOMX0-16" style="edgeStyle=orthogonalEdgeStyle;rounded=0;orthogonalLoop=1;jettySize=auto;html=1;entryX=0;entryY=0.5;entryDx=0;entryDy=0;" edge="1" parent="1" source="jb3Zaknvb_DmuaJsOMX0-11" target="jb3Zaknvb_DmuaJsOMX0-15">
          <mxGeometry relative="1" as="geometry">
            <Array as="points">
              <mxPoint x="210" y="330" />
              <mxPoint x="210" y="550" />
            </Array>
          </mxGeometry>
        </mxCell>
        <mxCell id="jb3Zaknvb_DmuaJsOMX0-20" style="edgeStyle=orthogonalEdgeStyle;rounded=0;orthogonalLoop=1;jettySize=auto;html=1;entryX=0;entryY=0.5;entryDx=0;entryDy=0;" edge="1" parent="1" source="jb3Zaknvb_DmuaJsOMX0-11" target="jb3Zaknvb_DmuaJsOMX0-19">
          <mxGeometry relative="1" as="geometry">
            <Array as="points">
              <mxPoint x="210" y="330" />
              <mxPoint x="210" y="630" />
            </Array>
          </mxGeometry>
        </mxCell>
        <mxCell id="jb3Zaknvb_DmuaJsOMX0-11" value="System Design &amp;amp; Development" style="rounded=1;whiteSpace=wrap;html=1;" vertex="1" parent="1">
          <mxGeometry x="250" y="300" width="120" height="60" as="geometry" />
        </mxCell>
        <mxCell id="jb3Zaknvb_DmuaJsOMX0-17" style="edgeStyle=orthogonalEdgeStyle;rounded=0;orthogonalLoop=1;jettySize=auto;html=1;entryX=0;entryY=0.5;entryDx=0;entryDy=0;" edge="1" parent="1" source="jb3Zaknvb_DmuaJsOMX0-13" target="jb3Zaknvb_DmuaJsOMX0-15">
          <mxGeometry relative="1" as="geometry">
            <Array as="points">
              <mxPoint x="210" y="470" />
              <mxPoint x="210" y="550" />
            </Array>
          </mxGeometry>
        </mxCell>
        <mxCell id="jb3Zaknvb_DmuaJsOMX0-18" style="edgeStyle=orthogonalEdgeStyle;rounded=0;orthogonalLoop=1;jettySize=auto;html=1;exitX=0;exitY=0.75;exitDx=0;exitDy=0;entryX=0;entryY=0.5;entryDx=0;entryDy=0;" edge="1" parent="1" source="jb3Zaknvb_DmuaJsOMX0-13" target="jb3Zaknvb_DmuaJsOMX0-15">
          <mxGeometry relative="1" as="geometry">
            <mxPoint x="210" y="550" as="targetPoint" />
            <Array as="points">
              <mxPoint x="210" y="485" />
              <mxPoint x="210" y="550" />
            </Array>
          </mxGeometry>
        </mxCell>
        <mxCell id="jb3Zaknvb_DmuaJsOMX0-13" value="Functional Design" style="whiteSpace=wrap;html=1;rounded=1;" vertex="1" parent="1">
          <mxGeometry x="250" y="440" width="120" height="60" as="geometry" />
        </mxCell>
        <mxCell id="jb3Zaknvb_DmuaJsOMX0-21" style="edgeStyle=orthogonalEdgeStyle;rounded=0;orthogonalLoop=1;jettySize=auto;html=1;entryX=0;entryY=0.5;entryDx=0;entryDy=0;" edge="1" parent="1" source="jb3Zaknvb_DmuaJsOMX0-15" target="jb3Zaknvb_DmuaJsOMX0-19">
          <mxGeometry relative="1" as="geometry">
            <mxPoint x="230" y="600" as="targetPoint" />
            <Array as="points">
              <mxPoint x="210" y="570" />
              <mxPoint x="210" y="630" />
            </Array>
          </mxGeometry>
        </mxCell>
        <mxCell id="jb3Zaknvb_DmuaJsOMX0-15" value="Integration Design" style="whiteSpace=wrap;html=1;rounded=1;" vertex="1" parent="1">
          <mxGeometry x="250" y="520" width="120" height="60" as="geometry" />
        </mxCell>
        <mxCell id="jb3Zaknvb_DmuaJsOMX0-19" value="Integration Design" style="whiteSpace=wrap;html=1;rounded=1;" vertex="1" parent="1">
          <mxGeometry x="250" y="600" width="120" height="60" as="geometry" />
        </mxCell>
        <mxCell id="jb3Zaknvb_DmuaJsOMX0-25" value="" style="edgeStyle=orthogonalEdgeStyle;rounded=0;orthogonalLoop=1;jettySize=auto;html=1;" edge="1" parent="1" source="jb3Zaknvb_DmuaJsOMX0-22" target="jb3Zaknvb_DmuaJsOMX0-24">
          <mxGeometry relative="1" as="geometry">
            <Array as="points">
              <mxPoint x="430" y="330" />
              <mxPoint x="430" y="470" />
            </Array>
          </mxGeometry>
        </mxCell>
        <mxCell id="jb3Zaknvb_DmuaJsOMX0-28" style="edgeStyle=orthogonalEdgeStyle;rounded=0;orthogonalLoop=1;jettySize=auto;html=1;entryX=0;entryY=0.5;entryDx=0;entryDy=0;" edge="1" parent="1" source="jb3Zaknvb_DmuaJsOMX0-22" target="jb3Zaknvb_DmuaJsOMX0-26">
          <mxGeometry relative="1" as="geometry">
            <Array as="points">
              <mxPoint x="430" y="330" />
              <mxPoint x="430" y="550" />
            </Array>
          </mxGeometry>
        </mxCell>
        <mxCell id="jb3Zaknvb_DmuaJsOMX0-31" style="edgeStyle=orthogonalEdgeStyle;rounded=0;orthogonalLoop=1;jettySize=auto;html=1;entryX=0;entryY=0.5;entryDx=0;entryDy=0;" edge="1" parent="1" source="jb3Zaknvb_DmuaJsOMX0-22" target="jb3Zaknvb_DmuaJsOMX0-30">
          <mxGeometry relative="1" as="geometry">
            <Array as="points">
              <mxPoint x="430" y="330" />
              <mxPoint x="430" y="630" />
            </Array>
          </mxGeometry>
        </mxCell>
        <mxCell id="jb3Zaknvb_DmuaJsOMX0-22" value="Data &amp;amp; AI Model Preparation" style="rounded=1;whiteSpace=wrap;html=1;" vertex="1" parent="1">
          <mxGeometry x="460" y="300" width="120" height="60" as="geometry" />
        </mxCell>
        <mxCell id="jb3Zaknvb_DmuaJsOMX0-29" style="edgeStyle=orthogonalEdgeStyle;rounded=0;orthogonalLoop=1;jettySize=auto;html=1;exitX=0;exitY=0.75;exitDx=0;exitDy=0;entryX=0;entryY=0.5;entryDx=0;entryDy=0;" edge="1" parent="1" source="jb3Zaknvb_DmuaJsOMX0-24" target="jb3Zaknvb_DmuaJsOMX0-26">
          <mxGeometry relative="1" as="geometry">
            <Array as="points">
              <mxPoint x="430" y="485" />
              <mxPoint x="430" y="550" />
            </Array>
          </mxGeometry>
        </mxCell>
        <mxCell id="jb3Zaknvb_DmuaJsOMX0-24" value="&#xa; Data Collection &amp;amp; Cleaning&#xa;&#xa;" style="whiteSpace=wrap;html=1;rounded=1;" vertex="1" parent="1">
          <mxGeometry x="460" y="440" width="120" height="60" as="geometry" />
        </mxCell>
        <mxCell id="jb3Zaknvb_DmuaJsOMX0-32" style="edgeStyle=orthogonalEdgeStyle;rounded=0;orthogonalLoop=1;jettySize=auto;html=1;exitX=0;exitY=0.75;exitDx=0;exitDy=0;entryX=0;entryY=0.5;entryDx=0;entryDy=0;" edge="1" parent="1" source="jb3Zaknvb_DmuaJsOMX0-26" target="jb3Zaknvb_DmuaJsOMX0-30">
          <mxGeometry relative="1" as="geometry">
            <Array as="points">
              <mxPoint x="430" y="565" />
              <mxPoint x="430" y="630" />
            </Array>
          </mxGeometry>
        </mxCell>
        <mxCell id="jb3Zaknvb_DmuaJsOMX0-26" value="AI Model Training" style="whiteSpace=wrap;html=1;rounded=1;" vertex="1" parent="1">
          <mxGeometry x="460" y="520" width="120" height="60" as="geometry" />
        </mxCell>
        <mxCell id="jb3Zaknvb_DmuaJsOMX0-30" value="Model Validation" style="whiteSpace=wrap;html=1;rounded=1;" vertex="1" parent="1">
          <mxGeometry x="460" y="600" width="120" height="60" as="geometry" />
        </mxCell>
        <mxCell id="jb3Zaknvb_DmuaJsOMX0-36" value="" style="edgeStyle=orthogonalEdgeStyle;rounded=0;orthogonalLoop=1;jettySize=auto;html=1;" edge="1" parent="1" source="jb3Zaknvb_DmuaJsOMX0-33" target="jb3Zaknvb_DmuaJsOMX0-35">
          <mxGeometry relative="1" as="geometry">
            <Array as="points">
              <mxPoint x="640" y="330" />
              <mxPoint x="640" y="470" />
            </Array>
          </mxGeometry>
        </mxCell>
        <mxCell id="jb3Zaknvb_DmuaJsOMX0-38" style="edgeStyle=orthogonalEdgeStyle;rounded=0;orthogonalLoop=1;jettySize=auto;html=1;entryX=0;entryY=0.5;entryDx=0;entryDy=0;" edge="1" parent="1" source="jb3Zaknvb_DmuaJsOMX0-33" target="jb3Zaknvb_DmuaJsOMX0-37">
          <mxGeometry relative="1" as="geometry">
            <Array as="points">
              <mxPoint x="640" y="330" />
              <mxPoint x="640" y="550" />
            </Array>
          </mxGeometry>
        </mxCell>
        <mxCell id="jb3Zaknvb_DmuaJsOMX0-40" style="edgeStyle=orthogonalEdgeStyle;rounded=0;orthogonalLoop=1;jettySize=auto;html=1;entryX=0;entryY=0.5;entryDx=0;entryDy=0;" edge="1" parent="1" source="jb3Zaknvb_DmuaJsOMX0-33" target="jb3Zaknvb_DmuaJsOMX0-39">
          <mxGeometry relative="1" as="geometry">
            <Array as="points">
              <mxPoint x="640" y="330" />
              <mxPoint x="640" y="630" />
            </Array>
          </mxGeometry>
        </mxCell>
        <mxCell id="jb3Zaknvb_DmuaJsOMX0-33" value="System Implementation" style="rounded=1;whiteSpace=wrap;html=1;" vertex="1" parent="1">
          <mxGeometry x="670" y="300" width="120" height="60" as="geometry" />
        </mxCell>
        <mxCell id="jb3Zaknvb_DmuaJsOMX0-35" value="PACS/EHR Integration" style="whiteSpace=wrap;html=1;rounded=1;" vertex="1" parent="1">
          <mxGeometry x="670" y="440" width="120" height="60" as="geometry" />
        </mxCell>
        <mxCell id="jb3Zaknvb_DmuaJsOMX0-41" style="edgeStyle=orthogonalEdgeStyle;rounded=0;orthogonalLoop=1;jettySize=auto;html=1;exitX=0;exitY=0.75;exitDx=0;exitDy=0;entryX=0;entryY=0.5;entryDx=0;entryDy=0;" edge="1" parent="1" source="jb3Zaknvb_DmuaJsOMX0-37" target="jb3Zaknvb_DmuaJsOMX0-39">
          <mxGeometry relative="1" as="geometry">
            <Array as="points">
              <mxPoint x="640" y="565" />
              <mxPoint x="640" y="630" />
            </Array>
          </mxGeometry>
        </mxCell>
        <mxCell id="jb3Zaknvb_DmuaJsOMX0-37" value="System Deployment" style="whiteSpace=wrap;html=1;rounded=1;" vertex="1" parent="1">
          <mxGeometry x="670" y="520" width="120" height="60" as="geometry" />
        </mxCell>
        <mxCell id="jb3Zaknvb_DmuaJsOMX0-39" value="Staff Training" style="whiteSpace=wrap;html=1;rounded=1;" vertex="1" parent="1">
          <mxGeometry x="670" y="600" width="120" height="60" as="geometry" />
        </mxCell>
        <mxCell id="jb3Zaknvb_DmuaJsOMX0-46" value="" style="edgeStyle=orthogonalEdgeStyle;rounded=0;orthogonalLoop=1;jettySize=auto;html=1;" edge="1" parent="1" source="jb3Zaknvb_DmuaJsOMX0-42" target="jb3Zaknvb_DmuaJsOMX0-45">
          <mxGeometry relative="1" as="geometry">
            <Array as="points">
              <mxPoint x="850" y="330" />
              <mxPoint x="850" y="470" />
            </Array>
          </mxGeometry>
        </mxCell>
        <mxCell id="jb3Zaknvb_DmuaJsOMX0-42" value="&lt;span data-end=&quot;940&quot; data-start=&quot;906&quot;&gt;Testing &amp;amp; Quality Assurance&lt;/span&gt;" style="rounded=1;whiteSpace=wrap;html=1;" vertex="1" parent="1">
          <mxGeometry x="880" y="300" width="120" height="60" as="geometry" />
        </mxCell>
        <mxCell id="jb3Zaknvb_DmuaJsOMX0-49" style="edgeStyle=orthogonalEdgeStyle;rounded=0;orthogonalLoop=1;jettySize=auto;html=1;exitX=0;exitY=0.75;exitDx=0;exitDy=0;entryX=0;entryY=0.5;entryDx=0;entryDy=0;" edge="1" parent="1" source="jb3Zaknvb_DmuaJsOMX0-45" target="jb3Zaknvb_DmuaJsOMX0-47">
          <mxGeometry relative="1" as="geometry" />
        </mxCell>
        <mxCell id="jb3Zaknvb_DmuaJsOMX0-45" value="Functional Testing" style="whiteSpace=wrap;html=1;rounded=1;" vertex="1" parent="1">
          <mxGeometry x="880" y="440" width="120" height="60" as="geometry" />
        </mxCell>
        <mxCell id="jb3Zaknvb_DmuaJsOMX0-50" style="edgeStyle=orthogonalEdgeStyle;rounded=0;orthogonalLoop=1;jettySize=auto;html=1;exitX=0;exitY=0.75;exitDx=0;exitDy=0;entryX=0;entryY=0.5;entryDx=0;entryDy=0;" edge="1" parent="1" source="jb3Zaknvb_DmuaJsOMX0-47" target="jb3Zaknvb_DmuaJsOMX0-48">
          <mxGeometry relative="1" as="geometry" />
        </mxCell>
        <mxCell id="jb3Zaknvb_DmuaJsOMX0-47" value="Performance Testing" style="whiteSpace=wrap;html=1;rounded=1;" vertex="1" parent="1">
          <mxGeometry x="880" y="520" width="120" height="60" as="geometry" />
        </mxCell>
        <mxCell id="jb3Zaknvb_DmuaJsOMX0-48" value="Security and Compliance Testing" style="whiteSpace=wrap;html=1;rounded=1;" vertex="1" parent="1">
          <mxGeometry x="880" y="610" width="120" height="60" as="geometry" />
        </mxCell>
        <mxCell id="jb3Zaknvb_DmuaJsOMX0-55" value="" style="edgeStyle=orthogonalEdgeStyle;rounded=0;orthogonalLoop=1;jettySize=auto;html=1;" edge="1" parent="1" source="jb3Zaknvb_DmuaJsOMX0-52" target="jb3Zaknvb_DmuaJsOMX0-54">
          <mxGeometry relative="1" as="geometry" />
        </mxCell>
        <mxCell id="jb3Zaknvb_DmuaJsOMX0-59" style="edgeStyle=orthogonalEdgeStyle;rounded=0;orthogonalLoop=1;jettySize=auto;html=1;entryX=0;entryY=0.5;entryDx=0;entryDy=0;" edge="1" parent="1" source="jb3Zaknvb_DmuaJsOMX0-52" target="jb3Zaknvb_DmuaJsOMX0-58">
          <mxGeometry relative="1" as="geometry">
            <Array as="points">
              <mxPoint x="1080" y="330" />
              <mxPoint x="1080" y="630" />
            </Array>
          </mxGeometry>
        </mxCell>
        <mxCell id="jb3Zaknvb_DmuaJsOMX0-52" value="&lt;span data-end=&quot;940&quot; data-start=&quot;906&quot;&gt;Go-Live &amp;amp; Support&lt;/span&gt;" style="rounded=1;whiteSpace=wrap;html=1;" vertex="1" parent="1">
          <mxGeometry x="1130" y="300" width="120" height="60" as="geometry" />
        </mxCell>
        <mxCell id="jb3Zaknvb_DmuaJsOMX0-57" value="" style="edgeStyle=orthogonalEdgeStyle;rounded=0;orthogonalLoop=1;jettySize=auto;html=1;exitX=0;exitY=0.5;exitDx=0;exitDy=0;" edge="1" parent="1" source="jb3Zaknvb_DmuaJsOMX0-54" target="jb3Zaknvb_DmuaJsOMX0-56">
          <mxGeometry relative="1" as="geometry">
            <Array as="points">
              <mxPoint x="1080" y="470" />
              <mxPoint x="1080" y="550" />
            </Array>
          </mxGeometry>
        </mxCell>
        <mxCell id="jb3Zaknvb_DmuaJsOMX0-54" value="Launch" style="whiteSpace=wrap;html=1;rounded=1;" vertex="1" parent="1">
          <mxGeometry x="1130" y="440" width="120" height="60" as="geometry" />
        </mxCell>
        <mxCell id="jb3Zaknvb_DmuaJsOMX0-60" style="edgeStyle=orthogonalEdgeStyle;rounded=0;orthogonalLoop=1;jettySize=auto;html=1;exitX=0;exitY=0.75;exitDx=0;exitDy=0;entryX=0;entryY=0.5;entryDx=0;entryDy=0;" edge="1" parent="1" source="jb3Zaknvb_DmuaJsOMX0-56" target="jb3Zaknvb_DmuaJsOMX0-58">
          <mxGeometry relative="1" as="geometry">
            <Array as="points">
              <mxPoint x="1080" y="565" />
              <mxPoint x="1080" y="630" />
            </Array>
          </mxGeometry>
        </mxCell>
        <mxCell id="jb3Zaknvb_DmuaJsOMX0-56" value="Monitoring &amp;amp; Feedback" style="whiteSpace=wrap;html=1;rounded=1;" vertex="1" parent="1">
          <mxGeometry x="1130" y="520" width="120" height="60" as="geometry" />
        </mxCell>
        <mxCell id="jb3Zaknvb_DmuaJsOMX0-58" value="Maintenance &amp;amp; Updates" style="whiteSpace=wrap;html=1;rounded=1;" vertex="1" parent="1">
          <mxGeometry x="1130" y="600" width="120" height="60" as="geometry" />
        </mxCell>
      </root>
    </mxGraphModel>
  </diagram>
</mxfile>
